<svg width="32" height="32" viewBox="0 0 32 32" fill="none" xmlns="http://www.w3.org/2000/svg">
  <rect width="32" height="32" rx="8" fill="#000000"/>
  <path d="M16 6C10.477 6 6 10.477 6 16C6 21.523 10.477 26 16 26C21.523 26 26 21.523 26 16C26 10.477 21.523 6 16 6ZM16 24C11.582 24 8 20.418 8 16C8 11.582 11.582 8 16 8C20.418 8 24 11.582 24 16C24 20.418 20.418 24 16 24Z" fill="#00f3ff"/>
  <path d="M16 12C14.895 12 14 12.895 14 14V18C14 19.105 14.895 20 16 20C17.105 20 18 19.105 18 18V14C18 12.895 17.105 12 16 12Z" fill="#00f3ff"/>
</svg>

