<svg width="400" height="300" viewBox="0 0 400 300" fill="none" xmlns="http://www.w3.org/2000/svg">
  <rect width="400" height="300" fill="#1a1a1a"/>
  <path d="M185 150C185 166.569 171.569 180 155 180C138.431 180 125 166.569 125 150C125 133.431 138.431 120 155 120C171.569 120 185 133.431 185 150Z" fill="#333"/>
  <path d="M275 150C275 166.569 261.569 180 245 180C228.431 180 215 166.569 215 150C215 133.431 228.431 120 245 120C261.569 120 275 133.431 275 150Z" fill="#333"/>
  <path d="M200 220C177.909 220 160 202.091 160 180H240C240 202.091 222.091 220 200 220Z" fill="#333"/>
</svg>

